<svg xmlns="http://www.w3.org/2000/svg" viewBox="0 0 512 512" class="w-7 h-7 p-1.5 mr-2.5 rounded-lg border border-gray-200 dark:border-gray-800">
                      <g fill="#f44336">
                        <path d="M211.563 26.133c-1.971-2.993-5.313-4.796-8.896-4.8h-192C4.776 21.333 0 26.109 0 32v448c-.001 5.07 3.566 9.439 8.533 10.453.702.141 1.417.213 2.133.213 4.255.015 8.111-2.5 9.813-6.4l192-448c1.43-3.315 1.085-7.128-.916-10.133zM265.877 187.989c-1.632-4.021-5.537-6.653-9.877-6.656-4.293-.001-8.169 2.571-9.835 6.528l-85.333 202.667c-2.286 5.43.263 11.684 5.692 13.97 1.311.552 2.72.836 4.142.836h77.931l29.419 78.421c1.564 4.158 5.541 6.912 9.984 6.912h85.333c5.891-.004 10.664-4.782 10.66-10.673-.001-1.373-.267-2.732-.783-4.004L265.877 187.989zM501.333 21.333h-192c-5.891-.021-10.683 4.738-10.704 10.629-.005 1.481.298 2.947.89 4.304l192 448c1.702 3.9 5.559 6.415 9.813 6.4.716-.001 1.431-.072 2.133-.213 4.967-1.014 8.534-5.384 8.533-10.453V32c.002-5.891-4.774-10.667-10.665-10.667z"></path>
                      </g>
                    </svg>