<svg xmlns="http://www.w3.org/2000/svg" viewBox="0 0 512 512" class="w-7 h-7 p-1.5 mr-2.5 rounded-lg border border-gray-200 dark:border-gray-800">
                      <path fill="#f44336" d="M201.302 49.754l-192 24.939C3.949 75.384-.044 79.963 0 85.36v149.333c0 5.891 4.776 10.667 10.667 10.667h192c5.891 0 10.667-4.776 10.667-10.667V60.314c-.004-3.064-1.325-5.978-3.627-8-2.319-1.994-5.368-2.923-8.405-2.56z"></path>
                      <path fill="#4caf50" d="M508.374 13.36c-2.286-2.06-5.35-3.032-8.405-2.667l-256 33.387c-5.352.691-9.346 5.27-9.301 10.667v179.947c0 5.891 4.776 10.667 10.667 10.667h256c5.891 0 10.667-4.776 10.667-10.667V21.36c-.005-3.064-1.327-5.978-3.628-8z"></path>
                      <path fill="#2196f3" d="M202.667 266.693h-192C4.776 266.693 0 271.469 0 277.36v149.333c-.044 5.397 3.949 9.976 9.301 10.667l192 25.045c.455.031.911.031 1.365 0 5.891 0 10.667-4.776 10.667-10.667V277.36c.001-5.891-4.775-10.667-10.666-10.667z"></path>
                      <path fill="#ffc107" d="M501.334 266.693h-256c-5.891 0-10.667 4.776-10.667 10.667v179.947c-.044 5.397 3.949 9.976 9.301 10.667l256 33.387c.455.031.911.031 1.365 0 5.891 0 10.667-4.776 10.667-10.667V277.36c0-5.891-4.775-10.667-10.666-10.667z"></path>
                    </svg>