<svg xmlns="http://www.w3.org/2000/svg" viewBox="0 0 512.005 512.005" class="w-7 h-7 p-1.5 mr-2.5 rounded-lg border border-gray-200 dark:border-gray-800">
                      <g fill="#37474f">
                        <path d="M461.852 355.712c-1.692-2.616-4.443-4.362-7.531-4.779-40.621-5.306-69.25-42.537-63.944-83.158 3.748-28.694 23.84-52.588 51.465-61.205 5.61-1.798 8.701-7.803 6.903-13.413-.28-.873-.671-1.707-1.164-2.481-18.641-33.642-51.786-56.779-89.792-62.677-19.152.914-38.026 4.957-55.872 11.968-12.817 5.158-26.351 8.317-40.128 9.365-13.777-1.048-27.311-4.207-40.128-9.365-17.846-7.011-36.72-11.054-55.872-11.968-39.829 0-117.333 56.469-117.333 160 0 98.389 71.765 224 128 224 21.457.192 42.656-4.691 61.867-14.251 7.235-3.99 15.232-6.404 23.467-7.083 8.234.679 16.232 3.093 23.467 7.083 19.211 9.56 40.41 14.443 61.867 14.251 44.587 0 94.912-76.544 115.989-147.477.882-2.979.422-6.197-1.261-8.81z"></path>
                        <path d="M251.121 128c64.772-.071 117.263-52.561 117.333-117.333C368.454 4.776 363.679 0 357.788 0c-64.772.071-117.263 52.561-117.333 117.333-.001 5.891 4.775 10.667 10.666 10.667z"></path>
                      </g>
                    </svg>